<svg xmlns="http://www.w3.org/2000/svg" xmlns:xlink="http://www.w3.org/1999/xlink" width="38" height="38" viewBox="0 0 38 38">
  <defs>
    <clipPath id="clip-path">
      <rect width="38" height="38" fill="none"/>
    </clipPath>
    <clipPath id="clip-path-2">
      <path id="Clip_2" data-name="Clip 2" d="M0,0H38V34.542H0Z" fill="none"/>
    </clipPath>
  </defs>
  <g id="Icone_Ativo_Coleta_Copy" data-name="Icone/Ativo/Coleta Copy" clip-path="url(#clip-path)">
    <g id="Group_6" data-name="Group 6" transform="translate(0 3.447)">
      <g id="Group_3" data-name="Group 3" transform="translate(0 0)">
        <path id="Clip_2-2" data-name="Clip 2" d="M0,0H38V34.542H0Z" fill="none"/>
        <g id="Group_3-2" data-name="Group 3" clip-path="url(#clip-path-2)">
          <path id="Fill_1" data-name="Fill 1" d="M27.1,34.542H16.67a24.911,24.911,0,0,1-6.3-.81,1.133,1.133,0,0,1-1.091.81H3.316a.76.76,0,1,1,0-1.519H8.893l.01-.271V23.43H1.52v7.8a.76.76,0,0,1-1.52,0V23.05a1.142,1.142,0,0,1,1.14-1.14H9.283a1.136,1.136,0,0,1,1.123.95l.048-.017V9.6a1.142,1.142,0,0,1,1.14-1.14h1.412V1.14A1.141,1.141,0,0,1,14.145,0H27.131A1.065,1.065,0,0,1,28.2,1.064v7.4h1.411a1.142,1.142,0,0,1,1.14,1.14V24.6l2.846-3.055a2.543,2.543,0,0,1,1.852-.81h.031A2.55,2.55,0,0,1,38,23.3l0,.232a2.565,2.565,0,0,1-.508,1.509l-5.174,6.9A6.546,6.546,0,0,1,27.1,34.542ZM14.286,23.43a16.289,16.289,0,0,0-3.86,1.038v7.708a23.063,23.063,0,0,0,6.244.848H27.1a5.022,5.022,0,0,0,4-2l5.174-6.9a1.025,1.025,0,0,0,.2-.608l0-.24a1.017,1.017,0,0,0-1.017-1.025,1.038,1.038,0,0,0-.759.326l-4.532,4.866c-.1.11-.19.211-.275.31l-.017.02a2.3,2.3,0,0,1-2.005,1.012h-8.3a.76.76,0,1,1,0-1.52h6.4a1.205,1.205,0,0,0,.927-.413,1.177,1.177,0,0,0,0-1.528,1.205,1.205,0,0,0-.927-.413H21.631a21.745,21.745,0,0,1-3.78-.75l-.008,0A24.178,24.178,0,0,0,14.286,23.43Zm0-1.52a22.652,22.652,0,0,1,3.921.775l.027.007a23.807,23.807,0,0,0,3.4.7H26a2.7,2.7,0,0,1,2.542,3.6c.054-.058.117-.131.188-.213.089-.1.2-.231.329-.371l.167-.18V9.983H24.268v5.864a1.141,1.141,0,0,1-1.139,1.14H18.072a1.141,1.141,0,0,1-1.139-1.14V9.983H11.974V22.353A9.209,9.209,0,0,1,14.286,21.91ZM18.453,10v5.469h4.3V10ZM14.525,1.52V8.463h12.15V1.52H23.606V4.233a1.142,1.142,0,0,1-1.14,1.14H18.734a1.142,1.142,0,0,1-1.14-1.14V1.52Zm4.589,0V3.853h2.972V1.52Z" transform="translate(0 0)" fill="#3b3f51"/>
        </g>
      </g>
      <path id="Fill_4" data-name="Fill 4" d="M.741,0a.741.741,0,1,0,.741.741A.741.741,0,0,0,.741,0" transform="translate(0 33.071)" fill="#3b3f51"/>
    </g>
  </g>
</svg>
