<svg xmlns="http://www.w3.org/2000/svg" xmlns:xlink="http://www.w3.org/1999/xlink" width="38" height="38" viewBox="0 0 38 38">
  <defs>
    <clipPath id="clip-path">
      <rect width="38" height="38" fill="none"/>
    </clipPath>
    <clipPath id="clip-path-2">
      <path id="Clip_6" data-name="Clip 6" d="M0,0H37.609V29.466H0Z" fill="none"/>
    </clipPath>
  </defs>
  <g id="Icone_Ativo_Encaminhado" data-name="Icone/Ativo/Encaminhado" clip-path="url(#clip-path)">
    <g id="Group_12" data-name="Group 12" transform="translate(0.391 8.534)">
      <path id="Fill_1" data-name="Fill 1" d="M3.516,0H.694a.7.7,0,0,0,0,1.4H3.516a.7.7,0,0,0,0-1.4" transform="translate(17.401 21.327)" fill="#3598dc"/>
      <path id="Fill_3" data-name="Fill 3" d="M17.245,0H.717A.71.71,0,0,0,0,.7a.71.71,0,0,0,.717.7H17.245a.71.71,0,0,0,.717-.7.71.71,0,0,0-.717-.7" transform="translate(3.929 3.084)" fill="#3598dc"/>
      <g id="Group_7" data-name="Group 7">
        <path id="Clip_6-2" data-name="Clip 6" d="M0,0H37.609V29.466H0Z" fill="none"/>
        <g id="Group_7-2" data-name="Group 7" clip-path="url(#clip-path-2)">
          <path id="Fill_5" data-name="Fill 5" d="M29.229,29.466a4.515,4.515,0,0,1-4.406-3.593c-.01-.048-.018-.1-.026-.145v-.007H12.812l-.009.05c-.006.034-.012.067-.018.1a4.5,4.5,0,0,1-8.813,0c-.006-.033-.012-.066-.018-.1l-.009-.054H1.133A1.135,1.135,0,0,1,0,24.587V1.133A1.134,1.134,0,0,1,1.133,0H24.354a1.134,1.134,0,0,1,1.133,1.133v2.5h6.068A2.269,2.269,0,0,1,33.82,5.9V7.912a1.133,1.133,0,0,1-.4.865l.963,3.857h.96A2.269,2.269,0,0,1,37.608,14.9v9.686a1.134,1.134,0,0,1-1.132,1.134H33.663l-.005.036c-.007.038-.013.077-.022.115A4.516,4.516,0,0,1,29.229,29.466Zm0-7.49a2.988,2.988,0,0,0-2.987,2.989,3.038,3.038,0,0,0,.061.6,2.988,2.988,0,1,0,2.926-3.594Zm-20.85,0a2.988,2.988,0,0,0-2.988,2.989,3.038,3.038,0,0,0,.061.6,2.988,2.988,0,1,0,2.927-3.594Zm15.6,2.233.023.023V19.308a.755.755,0,1,1,1.51,0v3.131a4.495,4.495,0,0,1,8.125,1.618c.011.051.019.1.027.152H36.1V19.625H34.645a1.513,1.513,0,0,1-1.511-1.511V16.331A1.134,1.134,0,0,1,34.267,15.2h1.828a1.137,1.137,0,0,0-1.13-1.053H25.51v1.511a.755.755,0,1,1-1.51,0V12.634h-.023V1.511H1.51v22.7H3.946l.009-.05c.006-.034.012-.067.018-.1a4.5,4.5,0,0,1,8.813,0c.007.035.012.068.018.1l.009.05Zm10.668-7.5v.8a.605.605,0,0,0,.6.6h.838v-1.4ZM25.487,9.046v3.588h7.34l-.9-3.588Zm.095-3.9V7.535H32.31V6.282a1.135,1.135,0,0,0-1.133-1.134Z" transform="translate(0 0)" fill="#3598dc"/>
        </g>
      </g>
      <path id="Fill_8" data-name="Fill 8" d="M1.123,0A1.123,1.123,0,1,0,2.245,1.123,1.123,1.123,0,0,0,1.123,0" transform="translate(28.066 23.853)" fill="#3598dc"/>
      <path id="Fill_10" data-name="Fill 10" d="M1.123,0A1.123,1.123,0,1,0,2.245,1.123,1.123,1.123,0,0,0,1.123,0" transform="translate(7.297 23.853)" fill="#3598dc"/>
    </g>
  </g>
</svg>
