<svg xmlns="http://www.w3.org/2000/svg" width="37.849" height="37.864" viewBox="0 0 37.849 37.864">
  <g id="Group_6" data-name="Group 6" transform="translate(-1 -1.076)">
    <g id="Group" transform="translate(1 1)">
      <path id="Fill_1" data-name="Fill 1" d="M3.028,1.514A1.514,1.514,0,1,1,1.514,0,1.514,1.514,0,0,1,3.028,1.514" transform="translate(11.355 13.13)" fill="#c8cdda"/>
      <path id="Fill_3" data-name="Fill 3" d="M3.028,1.514A1.514,1.514,0,1,1,1.514,0,1.514,1.514,0,0,1,3.028,1.514" transform="translate(23.466 13.13)" fill="#c8cdda"/>
      <path id="Fill_5" data-name="Fill 5" d="M.446.068a.755.755,0,0,1,.973.32A8.657,8.657,0,0,0,8.974,4.84,8.657,8.657,0,0,0,16.529.387a.757.757,0,0,1,1.325.733,10.175,10.175,0,0,1-8.88,5.234A10.175,10.175,0,0,1,.094,1.12.756.756,0,0,1,.446.068" transform="translate(9.951 21.333)" fill="#c8cdda"/>
      <path id="Fill_7" data-name="Fill 7" d="M28.983,33.307a.761.761,0,0,0-.422.129,17.454,17.454,0,1,1,3.957-3.624.757.757,0,0,0,1.188.936,18.938,18.938,0,1,0-4.3,3.941.756.756,0,0,0-.425-1.382Z" transform="translate(0 0.076)" fill="#c8cdda"/>
    </g>
  </g>
</svg>
