<svg id="Logo_C" data-name="Logo C" xmlns="http://www.w3.org/2000/svg" width="119.968" height="47.94" viewBox="0 0 119.968 47.94">
  <path id="Shape" d="M8.9,5.863v9.068h2.972V5.863a2.975,2.975,0,0,1,5.935,0v9.068h2.972V5.863A5.856,5.856,0,0,0,16.943.377a5.989,5.989,0,0,0-6.556,1.618A5.989,5.989,0,0,0,3.838.387,5.857,5.857,0,0,0,0,5.863v9.068H2.972V5.863a2.975,2.975,0,0,1,5.935,0Z" transform="translate(0 7.453)" fill="#3b3f51"/>
  <path id="Shape-2" data-name="Shape" d="M7.535,14.854H7.529A7.54,7.54,0,0,1,.439,9.926,7.378,7.378,0,0,1,2.761,1.679a7.615,7.615,0,0,1,8.654-.614A7.4,7.4,0,0,1,14.909,8.9H3.212a4.537,4.537,0,0,0,3.623,2.979A4.6,4.6,0,0,0,11.2,10.1l2.384,1.737A7.574,7.574,0,0,1,7.535,14.854ZM7.526,2.928a4.564,4.564,0,0,0-4.31,3.031h8.623A4.561,4.561,0,0,0,7.526,2.928Z" transform="translate(22.75 7.529)" fill="#3b3f51"/>
  <path id="Shape-3" data-name="Shape" d="M5.945,22.383V19.451a2.953,2.953,0,0,1-2.972-2.932V0H0V16.529a5.815,5.815,0,0,0,1.742,4.143A5.977,5.977,0,0,0,5.945,22.383Z" transform="translate(39.776)" fill="#3b3f51"/>
  <path id="Shape-4" data-name="Shape" d="M8.9,13.28v9.068h2.972V13.28A5.839,5.839,0,0,0,8.908,8.21a6,6,0,0,0-5.936,0V0H0V22.347H2.972V13.279A2.922,2.922,0,0,1,4.4,10.6a3.008,3.008,0,0,1,3.071,0,2.922,2.922,0,0,1,1.432,2.68Z" transform="translate(47.699 0.036)" fill="#3b3f51"/>
  <path id="Shape-5" data-name="Shape" d="M7.564,14.921A7.521,7.521,0,0,1,0,7.461,7.521,7.521,0,0,1,7.563,0a7.52,7.52,0,0,1,7.564,7.459,7.359,7.359,0,0,1-2.215,5.277A7.565,7.565,0,0,1,7.564,14.921Zm0-12a4.538,4.538,0,1,0,4.6,4.537A4.574,4.574,0,0,0,7.564,2.922Z" transform="translate(61.599 7.463)" fill="#3b3f51"/>
  <path id="Shape-6" data-name="Shape" d="M2.963,5.864A2.953,2.953,0,0,1,5.935,2.932V0A5.9,5.9,0,0,0,0,5.854v9.068H2.972Z" transform="translate(78.709 7.452)" fill="#3b3f51"/>
  <path id="Shape-7" data-name="Shape" d="M0,5.851v9.068H2.972V5.851A2.953,2.953,0,0,1,5.945,2.919V0a5.977,5.977,0,0,0-4.2,1.71A5.815,5.815,0,0,0,0,5.851Z" transform="translate(0 33.014)" fill="#3b3f51"/>
  <path id="Shape-8" data-name="Shape" d="M13.419,14.842H10.468v-.592a7.593,7.593,0,0,1-8.9-2.291,7.344,7.344,0,0,1,0-9.073,7.571,7.571,0,0,1,11.849-.063V14.841ZM7.518,2.908A4.627,4.627,0,0,0,4.192,4.32a4.469,4.469,0,0,0,0,6.2,4.62,4.62,0,0,0,6.276.347V3.974A4.615,4.615,0,0,0,7.518,2.908Z" transform="translate(7.917 33.051)" fill="#3b3f51"/>
  <path id="Shape-9" data-name="Shape" d="M6.733,5.987H4.514a1.531,1.531,0,1,1,0-3.062H9.078V0H4.514A4.483,4.483,0,0,0,0,4.452,4.483,4.483,0,0,0,4.514,8.9H6.733a1.531,1.531,0,1,1,0,3.062H2.169v2.923H6.733a4.453,4.453,0,1,0,0-8.9Z" transform="translate(23.322 33.035)" fill="#3b3f51"/>
  <path id="Shape-10" data-name="Shape" d="M5.862,0H2.89V7.465H0V10.4H2.9v6.14A5.9,5.9,0,0,0,8.83,22.392V19.46a2.953,2.953,0,0,1-2.972-2.932V10.388H8.83V7.465H5.858Z" transform="translate(34.569 25.549)" fill="#3b3f51"/>
  <path id="Shape-11" data-name="Shape" d="M0,5.851v9.068H2.972V5.851A2.953,2.953,0,0,1,5.945,2.919V0a5.977,5.977,0,0,0-4.2,1.71A5.815,5.815,0,0,0,0,5.851Z" transform="translate(45.413 33.014)" fill="#3b3f51"/>
  <path id="Shape-12" data-name="Shape" d="M7.483,14.77A7.509,7.509,0,0,1,.8,10.711,7.317,7.317,0,0,1,2.778,1.643,7.576,7.576,0,0,1,7.477,0l.01,0a7.493,7.493,0,0,1,5.791,2.708,7.282,7.282,0,0,1,1.543,6.144H3.184a4.516,4.516,0,0,0,3.607,2.962,4.58,4.58,0,0,0,4.338-1.767L13.5,11.781A7.554,7.554,0,0,1,7.483,14.77ZM7.477,2.908A4.542,4.542,0,0,0,3.183,5.927H11.77A4.539,4.539,0,0,0,7.477,2.908Z" transform="translate(52.351 33.154)" fill="#3b3f51"/>
  <rect id="Rectangle-path" width="2.968" height="14.851" transform="translate(69.332 33.082)" fill="#3b3f51"/>
  <path id="Shape-13" data-name="Shape" d="M7.566,14.921h0a7.568,7.568,0,0,1-5.35-2.185A7.365,7.365,0,0,1,.576,4.605,7.544,7.544,0,0,1,7.564,0a7.521,7.521,0,0,1,7.564,7.461,7.438,7.438,0,0,1-4.669,6.892A7.61,7.61,0,0,1,7.566,14.921Zm0-12A4.6,4.6,0,0,0,4.311,4.253a4.479,4.479,0,0,0-1,4.945,4.61,4.61,0,0,0,8.85-1.736A4.524,4.524,0,0,0,9.324,3.269,4.631,4.631,0,0,0,7.565,2.923Z" transform="translate(74.284 33.014)" fill="#3b3f51"/>
  <path id="Shape-14" data-name="Shape" d="M6.888,13.466H6.826A6.787,6.787,0,0,1,0,6.733,6.787,6.787,0,0,1,6.826,0h.062a6.787,6.787,0,0,1,6.826,6.733A6.787,6.787,0,0,1,6.888,13.466ZM6.827,2.693A4.1,4.1,0,0,0,3.918,3.888,3.987,3.987,0,0,0,3.049,8.3a4.09,4.09,0,0,0,3.777,2.474h.03a4.088,4.088,0,0,0,4.067-4.042A4.029,4.029,0,0,0,8.386,3,4.121,4.121,0,0,0,6.827,2.693Z" transform="translate(93.938 7.328)" fill="#2bc866"/>
  <path id="Shape-15" data-name="Shape" d="M14.174,47.891h-.027a4.112,4.112,0,0,1-1.61-.326L8.256,45.743,5.123,44.408l-.628.217a9.857,9.857,0,0,0,.856-3,1.362,1.362,0,0,1,.362.1l7.907,3.367a1.392,1.392,0,0,0,1.082,0l7.906-3.367a1.38,1.38,0,0,1,1-.033l7,2.443-5.128-9.5-5.815-2.259L17.71,35.687A4.073,4.073,0,0,1,14.193,37.7h-.058a4.073,4.073,0,0,1-3.518-2.011L8.991,32.927l-.33-.559L3.393,34.414a10.229,10.229,0,0,0-2.11-2.072l.02-.009,5.971-2.319L1.955,20.982A13.8,13.8,0,0,1,.73,18.267,13.752,13.752,0,0,1,3.945,4.215l2.73-2.173a14.744,14.744,0,0,1,14.972,0l2.731,2.173a13.967,13.967,0,0,1,1.989,16.767l-5.318,9.032,5.971,2.322.02.008a1.35,1.35,0,0,1,.737.726L33.126,43.1a2.671,2.671,0,0,1-.542,2.885,2.758,2.758,0,0,1-2.892.686l-6.5-2.267-7.412,3.157A4.115,4.115,0,0,1,14.174,47.891ZM14.16,2.686a11.2,11.2,0,0,0-7.821,3.2l-.184.181A11.122,11.122,0,0,0,3.2,11.025a1.33,1.33,0,0,1-.209.434A11.088,11.088,0,0,0,3.15,16.88a1.45,1.45,0,0,1,.049.141c.038.134.081.272.13.422a11.1,11.1,0,0,0,.914,1.99l8.743,14.9a1.364,1.364,0,0,0,2.35,0l8.74-14.9a11.1,11.1,0,0,0,.913-1.99c.052-.157.095-.295.13-.422a1.09,1.09,0,0,1,.05-.141,11.1,11.1,0,0,0,.16-5.422,1.351,1.351,0,0,1-.209-.434A11.112,11.112,0,0,0,22.164,6.07l-.184-.181A11.045,11.045,0,0,0,14.16,2.686Z" transform="translate(86.635 0.035)" fill="#2bc866"/>
</svg>
