<svg xmlns="http://www.w3.org/2000/svg" xmlns:xlink="http://www.w3.org/1999/xlink" width="600" height="321.055" viewBox="0 0 600 321.055">
  <defs>
    <linearGradient id="linear-gradient" x1="0.469" y1="0.92" x2="0.5" y2="-0.677" gradientUnits="objectBoundingBox">
      <stop offset="0" stop-color="#f2f6f9" stop-opacity="0.4"/>
      <stop offset="1" stop-opacity="0.047"/>
    </linearGradient>
    <clipPath id="clip-path">
      <path id="Clip_8" data-name="Clip 8" d="M.578,23.782,0,282.433,81.984,258.65l81.879,24.15,81.988-23.781,81.879,24.147,81.959-11.8.58-258.651-81.959,11.8L246.43.367,164.444,24.15,82.565,0" transform="translate(0.467 0.159)" fill="none"/>
    </clipPath>
    <clipPath id="clip-path-2">
      <path id="Clip_11" data-name="Clip 11" d="M.578,23.782,0,282.433,81.984,258.65l81.879,24.15,81.988-23.781,81.879,24.147,81.959-11.8.58-258.651-81.959,11.8L246.43.367,164.444,24.15,82.565,0Z" transform="translate(0.467 0.159)" fill="none"/>
    </clipPath>
    <filter id="Fill_49" x="195.5" y="87.555" width="69" height="97" filterUnits="userSpaceOnUse">
      <feOffset dy="7" input="SourceAlpha"/>
      <feGaussianBlur stdDeviation="2.5" result="blur"/>
      <feFlood flood-opacity="0.149"/>
      <feComposite operator="in" in2="blur"/>
      <feComposite in="SourceGraphic"/>
    </filter>
  </defs>
  <g id="Componente_96_1" data-name="Componente 96 – 1" transform="translate(12 0)">
    <path id="Rectangle_2" data-name="Rectangle 2" d="M178.752,0H576L428.264,239.145,0,252Z" transform="translate(0 57.055)" opacity="0.328" fill="url(#linear-gradient)"/>
    <g id="Group_60" data-name="Group 60" transform="translate(0 -0.945)">
      <path id="Fill_1" data-name="Fill 1" d="M0,307H0L.629,26.788,92.985,0l81.859,24.142L256.814.367l82.6,24.359L431,11.543l-.626,279.562-93.066,13.4-81.122-23.924-81.967,23.775-81.86-24.142L0,307Zm256.234-48.061h0l82.6,24.359,70.815-10.193.533-237.581L337.887,45.931,256.765,22.008,174.8,45.783,92.937,21.641,21.36,42.4l-.532,236.932,71.579-20.761,81.86,24.142,81.967-23.774Z" transform="translate(1 1)" fill="#fff"/>
      <path id="Fill_2" data-name="Fill 2" d="M328.094,24.5,246.269.366,164.337,24.134,82.512,0,.579,23.768,0,282.266,81.932,258.5l81.825,24.134,81.933-23.767L327.515,283l81.906-11.792L410,12.71Z" transform="translate(11 13)" fill="#f1f6f9"/>
      <path id="Fill_3" data-name="Fill 3" d="M.578,23.767,0,282.266,81.931,258.5l81.825,24.134,81.934-23.767L327.516,283l81.905-11.791L410,12.71,328.095,24.5,246.269.366,164.336,24.134,82.511,0Z" transform="translate(11 13)" fill="#f1f6f9"/>
      <path id="Fill_4" data-name="Fill 4" d="M0,19.023,21.833,66H56L46.238,30.052,29.552,0Z" transform="translate(145 123)" fill="rgba(59,63,81,0.5)"/>
      <path id="Fill_5" data-name="Fill 5" d="M21.745,9.863,0,19.406l4.308-.1L17.19,66,89.885,51.47,90,0Z" transform="translate(332 26)" fill="rgba(85,105,118,0.5)"/>
      <path id="Fill_6" data-name="Fill 6" d="M0,11.676l7.145.607L30.8,75,93,45.431,81.829,25.237,63.007,0Z" transform="translate(49 100)" fill="rgba(105,120,130,0.5)"/>
      <g id="Group_52" data-name="Group 52" transform="translate(11 13)">
        <g id="Group_9" data-name="Group 9">
          <path id="Clip_8-2" data-name="Clip 8" d="M.578,23.782,0,282.433,81.984,258.65l81.879,24.15,81.988-23.781,81.879,24.147,81.959-11.8.58-258.651-81.959,11.8L246.43.367,164.444,24.15,82.565,0" transform="translate(0.467 0.159)" fill="none"/>
          <g id="Group_9-2" data-name="Group 9" clip-path="url(#clip-path)">
            <path id="Fill_7" data-name="Fill 7" d="M1.345,1.311.022,1.346C.01.9,0,.454,0,.011L1.323,0c0,.435.011.873.022,1.311" transform="translate(70.699 -9.75)" fill="#c7cedc"/>
          </g>
        </g>
        <g id="Group_12" data-name="Group 12">
          <path id="Clip_11-2" data-name="Clip 11" d="M.578,23.782,0,282.433,81.984,258.65l81.879,24.15,81.988-23.781,81.879,24.147,81.959-11.8.58-258.651-81.959,11.8L246.43.367,164.444,24.15,82.565,0Z" transform="translate(0.467 0.159)" fill="none"/>
          <g id="Group_12-2" data-name="Group 12" clip-path="url(#clip-path-2)">
            <path id="Fill_10" data-name="Fill 10" d="M.632,1.8C.413,1.395.2,1.011,0,.644L1.155,0c.207.371.419.76.64,1.165Z" transform="translate(99.652 79.843)" fill="#c7cedc"/>
          </g>
        </g>
        <g id="Group_15" data-name="Group 15">
          <path id="Clip_14-2" data-name="Clip 14" d="M.578,23.782,0,282.433,81.984,258.65l81.879,24.15,81.988-23.781,81.879,24.147,81.959-11.8.58-258.651-81.959,11.8L246.43.367,164.444,24.15,82.565,0Z" transform="translate(0.467 0.159)" fill="none"/>
          <g id="Group_15-2" data-name="Group 15" clip-path="url(#clip-path-2)">
            <path id="Fill_13" data-name="Fill 13" d="M14.157,35.307h0c-.389-.667-.748-1.272-1.1-1.857l-.067-.113-.108-.181,1.138-.677.108.182c.426.715.8,1.345,1.168,1.98l-1.142.666Zm-2.541-4.329h0c-.464-.823-.843-1.536-1.192-2.246l1.189-.583c.338.688.7,1.38,1.155,2.179l-1.15.65Zm-2.238-4.57h0c-.311-.756-.607-1.532-.9-2.371l1.247-.44c.294.827.581,1.582.881,2.308l-1.223.5Zm-1.7-4.77h0c-.24-.76-.485-1.571-.73-2.413l1.271-.369c.251.867.486,1.647.72,2.384l-1.26.4ZM6.262,16.8h0c-.211-.772-.429-1.589-.648-2.428l1.28-.335c.2.76.409,1.549.644,2.415L6.263,16.8ZM4.786,12.1h0c-.279-.68-.592-1.437-.957-2.316l1.222-.507.369.892q.3.728.591,1.429l-1.224.5ZM2.866,7.465h0L1.9,5.146,3.128,4.64l.959,2.316-1.22.508ZM.948,2.823h0C.579,1.921.278,1.182,0,.5L1.226,0c.363.9.655,1.612.947,2.321l-1.224.5Z" transform="translate(84.259 43.008)" fill="#c7cedc"/>
          </g>
        </g>
        <g id="Group_18" data-name="Group 18">
          <path id="Clip_17-2" data-name="Clip 17" d="M.578,23.782,0,282.433,81.984,258.65l81.879,24.15,81.988-23.781,81.879,24.147,81.959-11.8.58-258.651-81.959,11.8L246.43.367,164.444,24.15,82.565,0Z" transform="translate(0.467 0.159)" fill="none"/>
          <g id="Group_18-2" data-name="Group 18" clip-path="url(#clip-path-2)">
            <path id="Fill_16" data-name="Fill 16" d="M.489,1.718,0,.485,1.231,0l.487,1.23Z" transform="translate(82.821 39.424)" fill="#c7cedc"/>
          </g>
        </g>
        <g id="Group_21" data-name="Group 21">
          <path id="Clip_20-2" data-name="Clip 20" d="M.578,23.782,0,282.433,81.984,258.65l81.879,24.15,81.988-23.781,81.879,24.147,81.959-11.8.58-258.651-81.959,11.8L246.43.367,164.444,24.15,82.565,0" transform="translate(0.467 0.159)" fill="none"/>
          <g id="Group_21-2" data-name="Group 21" clip-path="url(#clip-path)">
            <path id="Fill_19" data-name="Fill 19" d="M1.53,1.352.216,1.511S.162,1.072,0,.258L1.3,0c.172.871.229,1.333.232,1.352" transform="translate(126.129 131.617)" fill="#c7cedc"/>
          </g>
        </g>
        <g id="Group_24" data-name="Group 24">
          <path id="Clip_23-2" data-name="Clip 23" d="M.578,23.782,0,282.433,81.984,258.65l81.879,24.15,81.988-23.781,81.879,24.147,81.959-11.8.58-258.651-81.959,11.8L246.43.367,164.444,24.15,82.565,0Z" transform="translate(0.467 0.159)" fill="none"/>
          <g id="Group_24-2" data-name="Group 24" clip-path="url(#clip-path-2)">
            <path id="Fill_22" data-name="Fill 22" d="M.592,2.529C.43,1.893.235,1.173,0,.375L1.269,0c.24.816.44,1.552.6,2.2Z" transform="translate(125.045 127.179)" fill="#c7cedc"/>
          </g>
        </g>
        <g id="Group_27" data-name="Group 27">
          <path id="Clip_26-2" data-name="Clip 26" d="M.578,23.782,0,282.433,81.984,258.65l81.879,24.15,81.988-23.781,81.879,24.147,81.959-11.8.58-258.651-81.959,11.8L246.43.367,164.444,24.15,82.565,0Z" transform="translate(0.467 0.159)" fill="none"/>
          <g id="Group_27-2" data-name="Group 27" clip-path="url(#clip-path-2)">
            <path id="Fill_25" data-name="Fill 25" d="M.424,1.68Q.226,1.079,0,.437L1.25,0c.153.437.3.856.43,1.265Z" transform="translate(123.952 123.735)" fill="#c7cedc"/>
          </g>
        </g>
        <g id="Group_30" data-name="Group 30">
          <path id="Clip_29-2" data-name="Clip 29" d="M.578,23.782,0,282.433,81.984,258.65l81.879,24.15,81.988-23.781,81.879,24.147,81.959-11.8.58-258.651-81.959,11.8L246.43.367,164.444,24.15,82.565,0Z" transform="translate(0.467 0.159)" fill="none"/>
          <g id="Group_30-2" data-name="Group 30" clip-path="url(#clip-path-2)">
            <path id="Fill_28" data-name="Fill 28" d="M97.2,461.422h0l-16.051,0c-4.854-4.429-9.661-9.07-14.288-13.794l-.161.059a2.941,2.941,0,0,1-.527.139,2.906,2.906,0,0,1-.485.041,3.005,3.005,0,0,1-2.113-.888c-2.177,8.773-.895,14.205-.839,14.432a.039.039,0,0,1,0,.011H52.025c-.531-4.377-.713-13.493,4.024-25.37-2.377-2.675-4.655-5.334-6.772-7.9-2.693-3.267-6.6-4.855-11.932-4.855-9.071,0-20.859,4.562-33.34,9.392-1.185.458-2.588,1-4,1.544V422.883l.064-.025.123-.048.03-.012c9.378-3.627,19.075-7.377,27.975-9.11-.923-.868-1.784-1.73-2.633-2.633-2.693-2.873-4.65-7.954-5.815-15.1l-4.321-.4a2.99,2.99,0,0,1-2.651-2.411L6.04,357.613,0,358.168v-5.981l4.926-.451L0,325.73V293.74l10.881,57.448,7.483-.688,0-.016-.005-.021C15.023,331.924,6.174,301.7,0,285.1V257.782c9.976-3.634,23.621-11.1,42.944-23.484a136.651,136.651,0,0,0-11.822-11.4C25.164,224.053,11.139,232,0,239.044V226.537c11.866-7.15,22-12.149,27.81-13.718l-.072-3.013c-.053-2.3-1.832-3.982-7.447-8.954-3.644-3.227-8.635-7.647-15-14.2L0,192.763v-9.1l1.176-1.357c-.227-.245-.458-.5-.691-.752l-.078-.085L0,181.03v-8.919c1.977,2.254,3.972,4.464,5.932,6.568l20.656-8.747a2.943,2.943,0,0,1,1.159-.237,2.985,2.985,0,0,1,2.428,1.253l34.772,48.91c2.9-1.921,5.07-3.346,7.027-4.621.7-.454,1.391-.89,2.062-1.311l.011-.007.079-.05L35.967,146.2a2.979,2.979,0,0,1,1.739-4.315l3.431-1.031L33.4,114.166l-4.548.869,5.378,14.139a2.985,2.985,0,0,1-1.394,3.693l-12.908,6.816a2.978,2.978,0,0,1-2.78-5.267l10.579-5.586-4.814-12.658L10.751,118.5a2.958,2.958,0,0,1-.555.053,3,3,0,0,1-2.541-1.422L0,104.63V96.646a2.986,2.986,0,0,1,.407-.028,2.953,2.953,0,0,1,2.537,1.418l8.712,14.224,12.548-2.4.059-.011.044-.009,7.43-1.42L27.73,94.585a2.9,2.9,0,0,1-.1-.527L0,96.192V91.545l31.024-2.4c-2.165-8.425-4.265-22.521-1.973-41.828.2-1.677.393-3.247.58-4.765l0-.019.05-.408c1.523-12.341,2.287-18.535-.453-25.5C27.549,12.353,24.457,7.381,18.89,0H31.939a65.9,65.9,0,0,1,7.107,12.6A23.377,23.377,0,0,1,49.523,9.793c.149,0,.3,0,.453.006,1.479.041,6.269.084,14.238.129L65.984,0h4.7L68.913,9.952c6.674.032,14.586.064,22.882.093.1-3.289.2-6.669.292-10.045h10.588c-.106,3.886-.2,7.183-.293,10.081,17.223.055,33.674.095,39.867.109l1.261,0L143.762,0h3.308L146.8,10.7l24.643,12.026,7.645-15.331A230.5,230.5,0,0,1,152.029,0h15.907c4.445,1.2,8.741,2.207,12.77,3.005.178-.957.34-1.968.481-3.005h4.691c-.161,1.242-.366,2.532-.61,3.834a102.589,102.589,0,0,0,11.848,1.325c2.14.1,4.25.2,6.546.293L204.035,0h5.3l-.386,5.657c4.663.165,8.467.245,11.628.245,5.355,0,8.665-.242,9.838-.72A21.3,21.3,0,0,0,231.487,0h4.656a23.894,23.894,0,0,1-1.851,7.785c-.589,1.038-1.711,1.686-3.637,2.1a51.965,51.965,0,0,1-10.033.658c-5.08,0-12.173-.228-23.72-.761a108.234,108.234,0,0,1-13.078-1.5l-8.216,16.473,17.543,8.562c.076-.027.156-.057.229-.085l.022-.008c6.373-2.462,18.59-4,36.311-4.561l-.108-4.546-1.783-.055a2.316,2.316,0,0,1-.075-4.626l14.032-.889c.049,0,.1,0,.147,0a2.317,2.317,0,0,1,1.733,3.855,2.287,2.287,0,0,1-1.588.773l-7.845.5.115,4.872c3.592-.077,7.409-.116,11.344-.116h.739l-3.1-18.018a2.248,2.248,0,0,1,.511-1.852,2.316,2.316,0,0,1,1.767-.814l37.836-.162h.012a2.3,2.3,0,0,1,1.347.445C283.988,5.4,283.178,2.7,282.392,0h11.041c.31,1.036.775,2.588,1.242,4.1l10.518-1.47L305.131,0h4.632l.049,1.983L321.216.39c-.009-.077-.016-.154-.023-.23-.005-.056-.01-.108-.015-.16H326.5a98.4,98.4,0,0,0,2.065,10.086c.6,2.485,1.285,5.3,1.876,8.217a86.262,86.262,0,0,0,2.286,8.453l8.667-1.579,17.153-5.4a2.3,2.3,0,0,1,.685-.1c5.088-2.54,15.085-7.51,24.863-12.266,6.1-2.966,11.3-5.456,15.476-7.4h15.922l15.821,31.911c8.891-3.2,18.692-6.726,29.962-10.784V32.379l-6.143,2.212-16.359,5.887c.749,2.571,2.3,8.123,4.242,16.4l18.261-7.875V54.05L444.07,61.472c2.643,11.77,5.033,24.394,7.1,37.519,1.736-.083,5.36-.239,10.1-.359v5.308c-4.016.1-7.27.225-9.293.314.67,4.476,1.3,9.016,1.887,13.493l7.406.167v5.29l-6.737-.15c.426,3.48.823,6.93,1.182,10.254,1.225.065,3.094.1,5.555.105v5.941c-1.993-.008-3.653-.036-4.934-.08.367,3.664.715,7.434,1.036,11.2l3.9.115v5.958l-3.077-.091.347,9.682a1.979,1.979,0,0,0,.085,1.094c1.473,13.03,2.315,24.626,2.5,34.466l.071.007.074.007v4.654l-.056-.005-.047,0c-.01,3.44-.108,6.652-.289,9.545a77.714,77.714,0,0,1-1.121,9.618c.3.063.6.122.886.18l.042.008.586.118v6.757c-1.317-.262-2.62-.53-3.875-.8-4.531-.968-9.917-1.858-16.007-2.645l-.9,3.574,5.824-.137h.058a2.315,2.315,0,0,1,2.307,2.468l-2.931,44.59a2.317,2.317,0,0,1-2.311,2.164c-.049,0-.1,0-.151,0a2.316,2.316,0,0,1-2.158-2.463l2.765-42.062-6.331.148h-.06a2.3,2.3,0,0,1-1.8-.868,2.327,2.327,0,0,1-.437-2.01l1.492-5.963c-2.178-.249-4.4-.483-6.593-.7l-.382,7.158a2.313,2.313,0,0,1-2.309,2.192c-.042,0-.085,0-.128,0a2.319,2.319,0,0,1-2.188-2.436l.392-7.336c-1.485-.13-3.017-.257-4.552-.377l.193,8.079a2.328,2.328,0,0,1-1.928,2.338,2.4,2.4,0,0,1-.333.032h-.053a2.317,2.317,0,0,1-2.317-2.261l-.2-8.534c-2.461-.173-4.937-.334-7.357-.478l.17,8.965a1.667,1.667,0,0,1-1.377,1.661,1.828,1.828,0,0,1-.245.022h-.033a1.662,1.662,0,0,1-1.652-1.623l-.175-9.216c-2.865-.158-5.882-.308-8.966-.445l-.941,4.763a1.654,1.654,0,0,1-3,.6,1.642,1.642,0,0,1-.248-1.242l.841-4.266c-3.257-.134-6.749-.259-10.378-.372.311,1.706.469,2.522.475,2.556a2.647,2.647,0,0,1-2.152,3.121l-8.117,1.38c.006,1.888.071,5.362.348,11.189.2,4.223-.9,7.028-3.272,8.336a5.857,5.857,0,0,1-2.867.709,8.5,8.5,0,0,1-2.163-.3l-.219,14.943a2.642,2.642,0,0,1-2.2,2.569,2.392,2.392,0,0,1-.381.036l-5.477.13c1.04,7.44,1.906,13.617,2.727,19.44a67.445,67.445,0,0,1,6.881-.344,69.153,69.153,0,0,1,16.211,1.886c10.913,2.636,41.06,5.82,62.129,5.82a110.342,110.342,0,0,0,16.351-.961v4.679a120.15,120.15,0,0,1-16.29.9c-8.471,0-17.218-.5-23.064-.916-15.992-1.143-32.9-3.254-40.214-5.02a64.561,64.561,0,0,0-15.129-1.749c-2.682,0-4.867.162-6.227.3,2.236,15.8,3.854,26.9,5.244,35.98,1.261,8.236,3,17.721,5.162,28.193,11.724-.242,25.153-1.251,43.543-3.274,11.535-1.268,27.34-1.989,46.976-2.143v10.609c-19.3.145-34.716.838-45.82,2.059-17.766,1.952-30.858,2.968-42.449,3.294,4.783,21.781,9.956,41.738,12.614,51.7a261.922,261.922,0,0,0,26.155-5.519,213.665,213.665,0,0,1,24.465-5.307,221.962,221.962,0,0,1,25.035-2.481V417.5a209.817,209.817,0,0,0-46.643,7.394,292.861,292.861,0,0,1-31.956,6.538l-.027.005-.015,0-.03,0H382.6l-.04,0c-18.014,2.821-37.739,4.836-47.967,4.9-2.5.211-25.023,2.07-46.229,2.395l.451,14.821a2.988,2.988,0,0,1-2.477,3.027,3.19,3.19,0,0,1-.407.04h-.093a2.961,2.961,0,0,1-2.973-2.887l-.455-14.954h-.06c-5.456,0-10.3-.129-14.4-.383-1.344-.085-2.778-.148-4.514-.2l.906,21.382c.544.039,1.193.06,1.927.06,5.558,0,16.539-1.187,30.128-3.257,11.275-1.717,22.018-3.711,24.989-4.638,3.6-1.119,30.485-5.5,53.343-8.887,27.5-4.076,43.844-6.058,49.959-6.058,2.181,0,2.685.246,3.09.443a2.978,2.978,0,0,1-.813,5.614,2.939,2.939,0,0,1-1.44-.113,7.476,7.476,0,0,0-.9-.042c-6,0-31.032,3.388-52.455,6.558-24.738,3.661-45.811,7.174-49.016,8.172-1.876.585-10.259,2.27-20.533,3.973H258.459l-.985-23.249c-14.037.253-26.2,2.924-37.189,8.169-.953.453-1.955.925-2.98,1.4,1.417,4.373,2.474,7.624,2.978,9.173a25.448,25.448,0,0,0,3.191,4.505H210.692l0,0,0,0a5.389,5.389,0,0,1-.33-.788l-.158-.487c-.382-1.174-1.3-3.991-2.588-7.969-5.874,2.645-13.274,5.932-20.836,9.254h-24.5c6.025-2.532,12.457-5.62,19.115-9.181.114-.062.239-.123.373-.182.043-.017.814-.356,1.981-.869l.293-.129-13.251-42.778c0-.012-.007-.024-.011-.036l-.008-.026-6.335-20.45c-13.27,2.8-22.334,5.96-29.39,10.248a58.579,58.579,0,0,1-8.275,4.079l17.662,59.323h-6.213l-17.05-57.268c-1.779.59-3.654,1.16-5.574,1.695l14.666,55.573H124.1l-14.276-54.092a206.2,206.2,0,0,1-26.572,4.318c-.183.358-.379.732-.6,1.143a84.9,84.9,0,0,1-6.214,9.217l0,.006-.009.012c-1.515,2.059-3.081,4.188-4.357,6.147s-2.407,3.883-3.482,5.925c1.524,1.636,3.083,3.275,4.631,4.87l10.237-3.735a2.943,2.943,0,0,1,1.022-.183,2.979,2.979,0,0,1,2.7,4.237,2.956,2.956,0,0,1-1.679,1.54l-7.668,2.8c9.49,9.409,17.225,16,19.37,17.8Zm88.057-63.792a2.979,2.979,0,0,1,1.5,5.554l-9.591,5.57,12.355,39.887c5.577-2.468,10.56-4.692,14.807-6.609-4.318-13.33-12.484-38.6-18.663-58.062-6.175.983-11.057,1.819-15.362,2.63l5.054,16.318,8.411-4.885A2.974,2.974,0,0,1,185.257,397.63Zm23.257-17.193h0c-3.021.468-6.019.929-8.81,1.356l-2.191.336-.122.019-1.144.176c5.578,17.544,12.741,39.74,17.769,55.27.688-.323,1.216-.572,1.711-.808,1.957-.934,4.028-1.827,6.155-2.652l-13.368-53.7Zm33.274-4.862c-10.749,1.45-19.956,2.775-27.367,3.94l13.1,52.636a95.627,95.627,0,0,1,11.8-2.87,110.622,110.622,0,0,1,12.616-1.479l-1.655-9.342-12.7,2.085a3,3,0,0,1-.487.04,2.978,2.978,0,0,1-.49-5.915h.012l26.2-4.3-4.269-22.326-8.933,1.256-.07.01-.01,0-.091.013-14.918,2.1a2.978,2.978,0,1,1-.829-5.9l11.3-1.588-3.209-8.358Zm17.907,51.989c2.922,0,5.92.095,8.911.281,3.832.238,8.392.359,13.554.359,23.031,0,51.472-2.4,51.745-2.421.149-.011.29-.017.43-.018,8.533-.031,24.536-1.566,40.769-3.91-1.694-6.374-5.065-19.318-8.626-34.382L341,391.144a3.1,3.1,0,0,1-.354.029l-18.031.428h-.07a2.979,2.979,0,0,1-.071-5.956l17.852-.421,24.791-3.572c-1.039-4.5-2.022-8.887-2.922-13.037a234.445,234.445,0,0,1-36.37-3.34c-3.153.356-14.607,1.657-29.621,3.45l.192,8.078a2.962,2.962,0,0,1-.823,2.127,2.994,2.994,0,0,1-2.083.92l-16.638.4.376,3.849a2.984,2.984,0,0,1-2.464,3.226c-.063.011-.131.02-.208.028-.1.01-.2.014-.294.014a2.966,2.966,0,0,1-2.959-2.687l-.689-7.043a2.978,2.978,0,0,1,2.892-3.267l16.866-.4-.108-4.531c-15.531,1.869-29.8,3.662-42.412,5.33l3.194,8.317,9.477-1.331a3.009,3.009,0,0,1,.418-.029,2.977,2.977,0,0,1,2.919,2.42l5.376,28.108a2.979,2.979,0,0,1-2.429,3.5l-.013,0-10.638,1.746,1.786,10.081C258.547,427.568,259.137,427.564,259.695,427.564ZM69.086,412.273c-3.159,0-8.938,1.862-15.855,5.109a24.4,24.4,0,0,1,4.209,4.029c1.143,1.386,2.345,2.811,3.676,4.354.721-1.225,1.4-2.329,2.085-3.376,1.436-2.2,3.084-4.445,4.679-6.614l.029-.04c.865-1.175,1.706-2.321,2.487-3.417-.3-.007-.589-.019-.881-.034C69.378,412.277,69.234,412.273,69.086,412.273ZM47.221,369.151c-.951,0-1.9.013-2.836.037-1.019.079-2.024.12-2.986.122-5.62.32-10.157,1.1-12.135,2.077-.669,13.121.649,28.836,4.013,32.421a38.75,38.75,0,0,0,8.94,7.292,117.244,117.244,0,0,1,12.3-5.827c5.979-2.379,10.92-3.585,14.686-3.585.311,0,.618.008.913.025.508.028,1.107.043,1.78.043,1.2,0,2.62-.045,4.218-.134,3.886-10.666,2.6-19.968,1.661-26.76a12.922,12.922,0,0,0-4.349-2.207,60.36,60.36,0,0,0-11.84-2.58A110.915,110.915,0,0,0,47.221,369.151Zm41.707,9.675a59.715,59.715,0,0,1-1.384,21.721c8.7-1.093,30.209-4.407,42-11.576,6.174-3.754,13.345-6.663,22.568-9.154a306.826,306.826,0,0,1,30.328-6.052c-2.694-8.587-4.348-14.036-4.916-16.2-.048-.179-.1-.368-.175-.6-9.7,2.526-34.789,9.41-58.055,18.779A68.884,68.884,0,0,1,105.25,379.9a40.613,40.613,0,0,1-6.719.6A26.424,26.424,0,0,1,88.927,378.825ZM20.248,356.308,12,357.065,18.2,389.832l.789.072a144.207,144.207,0,0,1-.237-20.172c.053-3.233,1.922-5.805,5.557-7.646a21.961,21.961,0,0,1-4.063-5.778Zm199.714-36.28L177.3,333.267c3.781,6.754,6.226,11.4,7.929,15.071.043.086.087.181.138.3a40.4,40.4,0,0,1,2.4,6.236c.575,2.191,2.342,7.989,5.253,17.233l3.065-.47.148-.023,1.874-.287.444-.068c4.482-.686,9.118-1.4,14.022-2.17,3.743-.589,7.86-1.207,12.237-1.838l-2.481-27.4-2.362-19.824Zm-52.875,16.677c-12.928,4.829-45.024,16.544-63.813,21.012-11.888,2.828-14.736,5.919-15.326,6.8a7.921,7.921,0,0,0,4.028,4.1,15.171,15.171,0,0,0,6.6,1.3c4.555,0,10.195-1.34,16.764-3.985q.633-.255,1.268-.507l.287-.114-1.24-4.638a2.977,2.977,0,1,1,5.752-1.539l1.074,4.016c20.084-7.586,40.175-13.241,50.364-15.937-1.474-2.805-3.3-6.144-5.757-10.5Zm68.144-20.052-9.466,1.768,2.475,20.768v.009c0,.025.006.048.008.073l2.458,27.139c15.88-2.225,35.835-4.785,59.309-7.609l-1.232-52.146-6.847,1.279,3.626,36.46a2.987,2.987,0,0,1-2.465,3.231c-.054.009-.126.02-.2.027-.1.01-.2.015-.3.015a2.965,2.965,0,0,1-2.959-2.683l-3.576-35.953-15.582,2.908.8,16.426a2.976,2.976,0,0,1-2.475,3.081,3.018,3.018,0,0,1-.353.04c-.048,0-.1,0-.147,0a2.971,2.971,0,0,1-2.97-2.833l-.763-15.613-13.406,2.5.411,29.33a2.979,2.979,0,0,1-2.478,2.977,3.19,3.19,0,0,1-.457.041h-.04a2.992,2.992,0,0,1-2.978-2.937ZM107.726,276.471c-3.413,1.841-6.382,3.53-8.827,5.02-5.72,3.487-18.5,5.65-25.61,6.629,1.141,6.627,2.176,13.03,3.077,19.031,6.609,44.021,3.9,48.141,2.448,50.355-.533.809-1.2,1.817-6.007,3.917,1.622.416,3.178.9,4.624,1.428a10.467,10.467,0,0,1,.89-2.779c1.749-3.624,5.437-6.6,11.277-9.091L81.947,298.87A2.98,2.98,0,0,1,84.3,295.52c.067-.013,7.057-1.524,15.648-7.427,2.856-1.962,6.362-4.153,10.421-6.512l-2.64-5.109ZM70.019,346.339l-38.612,7.84a15.677,15.677,0,0,0,5.2,3.792,10.989,10.989,0,0,0,4.52.747c.824-.044,1.691-.077,2.651-.1,1.238-.1,2.5-.263,3.86-.494A98.174,98.174,0,0,0,69.911,351.1a38.363,38.363,0,0,0,.108-4.76Zm232.466-63.183h0l-8.3.2,1.767,74.738c4.421-.525,8.206-.97,11.57-1.363Zm23.484,71.483a5.308,5.308,0,0,1,.866.071,226.384,226.384,0,0,0,33.119,3.263c-2-9.827-3.624-18.771-4.82-26.583-.874-5.712-1.864-12.4-3.025-20.432L319.6,313.348c-.057,0-.115.006-.172.006a2.3,2.3,0,0,1-1.554-.6,2.327,2.327,0,0,1-.76-1.661l-.669-28.266-8,.19,5,73.021c7.172-.831,11.74-1.345,11.93-1.365A5.469,5.469,0,0,1,325.97,354.639Zm-200.8-21.556-30.776,9.6.915,6.232c1.758-.542,3.614-1.046,5.514-1.5,6.357-1.51,15.141-4.116,26.11-7.744l-1.764-6.591Zm-66.2-9.28a2.977,2.977,0,0,1,.523,5.909l-33.447,5.936c1.144,4.873,2.062,9.227,2.728,12.94l0,.016c0,.01,0,.019.006.029l40.926-8.308c-.612-8.428-1.991-19.7-4.1-33.511-1.465-9.6-3.147-19.537-4.865-28.751l-12.88,3.944a3.109,3.109,0,0,1-.376.09,2.979,2.979,0,0,1-3.417-2.366l-2.146-11.007a2.981,2.981,0,0,1,2.352-3.493,2.9,2.9,0,0,1,.584-.06,2.976,2.976,0,0,1,2.908,2.412l1.513,7.762,10.338-3.166c-1.474-7.542-2.783-13.5-3.687-16.786a43.117,43.117,0,0,0-6.343-12.805c-10.144,6.518-18.163,11.379-25.234,15.3a143.5,143.5,0,0,1-21.188,9.955,23.86,23.86,0,0,1,3.284,5.131c2.159,4.493,5.247,12.906,8.7,23.689,3.465,10.832,6.834,22.619,9.486,33.19l33.816-6A2.977,2.977,0,0,1,58.968,323.8Zm65.352-49.449A2.975,2.975,0,0,1,126.981,276l22.9,45.751a2.976,2.976,0,0,1-1.775,4.177l-17.246,5.381,1.731,6.469c11.3-3.837,22.113-7.773,29.193-10.4l-.387-.677-.33-.577-.011-.02c-8.17-14.3-17.429-30.505-24.249-45.11-1.542-3.305-4.166-8.435-7.8-15.246-3.905,1.862-9.856,4.751-16.02,7.943l2.558,4.952c3.881-2.145,6.855-3.675,7.411-3.96l.007,0A2.99,2.99,0,0,1,124.32,274.354Zm-2.587,45.876L92.373,328.9l1.148,7.82,30.109-9.394Zm18.061-5.332-12.35,3.647,1.875,7,13.672-4.265-3.2-6.386Zm46.165-95.24a2.967,2.967,0,0,1-.891,1.259l-47.247,38.859c4.018,7.519,6.9,13.151,8.578,16.736,6.627,14.194,15.76,30.181,23.818,44.286l.04.071q.863,1.505,1.7,2.969l30.792-9.553-2.076-22.266-20.12,6.448a2.978,2.978,0,0,1-1.816-5.672l21.37-6.849-6.155-66.01Zm-73.112,67.373h0c-3.725,2.175-6.932,4.184-9.533,5.971a58.825,58.825,0,0,1-15.1,7.6L91.5,322.947l28.692-8.472-7.345-27.444Zm10.167-5.656c-1.723.917-3.3,1.773-4.817,2.615l7.708,28.8,11.182-3.3-14.072-28.112Zm76.932-61.225h0l8.612,92.332,10.129-3.144-.229-1.915c-.378-2.147-3.587-21.26.2-31.1.482-1.252,1.063-2.626,1.576-3.839l.1-.231.02-.047c.147-.347.3-.706.449-1.07l-2.488-1.094-5.535,6.085a2.977,2.977,0,0,1-4.4-4.009l6.972-7.666a2.979,2.979,0,0,1,3.4-.723l4.248,1.866c2.9-7.979,6.548-21.271,4.764-44.464l-27.813-.979Zm125.574,62.6-4.419,1.018.586,24.785,29.76-2.187c-1.077-7.513-2.154-15.165-3.158-22.315-10.813-.592-18.687-1.042-22.769-1.3Zm-37.675-15.783-23.84,2.3,2.368,20.585a2.987,2.987,0,0,1-.635,2.2,2.942,2.942,0,0,1-2.012,1.1L223.169,297.4c.408,4.678,1,8.117,1.166,9.059l0,.023c.008.051.016.1.023.154l.149,1.255L286.9,296.236a5.3,5.3,0,0,1,1.633-.04l-.37-15.647c0-.011,0-.022,0-.032s0-.014,0-.02v-.012l-.32-13.521Zm-29.767,2.868h0l-31.546,3.037c-.281.678-.557,1.33-.814,1.933l-.069.164c-.525,1.244-1.022,2.42-1.435,3.5-1.088,2.827-1.558,7.2-1.4,12.982l37.3-3.907-2.036-17.706ZM99.356,212.142h0a206.3,206.3,0,0,0-21.607,11.966c-3.324,2.166-6.822,4.483-10.526,6.936l-.609.4c-3.161,2.095-5.744,3.8-8.13,5.363a53.607,53.607,0,0,1,7.653,15.774c1.452,5.276,3.74,16.364,6.12,29.66,2.65-.368,7.846-1.152,12.855-2.278,5.094-1.145,8.69-2.343,10.687-3.561,9.338-5.7,23.048-12.415,30.389-15.914-2.042-3.781-4.428-8.151-7.091-12.988L97.2,260.94a2.976,2.976,0,0,1-4.262-1.3l-4.963-10.864a2.982,2.982,0,0,1,1.471-3.947,2.946,2.946,0,0,1,1.234-.27,2.986,2.986,0,0,1,2.71,1.741l3.565,7.8,19.264-11.817c-4.795-8.661-10.467-18.8-16.86-30.145Zm237.1,12.3H334.2l-4.151,52.614c5.329.316,12.4.709,17.4.983l-.066-.471-.032-.225q-.437-3.113-.872-6.218c-.917-6.559-1.9-13.558-2.849-20.306s-2.382-16.852-3.782-26.375C338.815,224.442,337.737,224.441,336.455,224.441Zm-43.113,23.074.38,16.074q0,.02,0,.039v.038l.325,13.735,11.111-.264h.066L324,276.692h.072c.064,0,.13,0,.2.007l.517.033.637.041,4.13-52.323-1.905.006-3.265.011-1.69.005-.126,0-.086,0,1.233,24.393a2.979,2.979,0,0,1-3.456,3.089Zm-59.6-26.174a134.656,134.656,0,0,1-.53,27.39,88.268,88.268,0,0,1-4.268,17.923l28.136-2.71-3.2-41.893-20.137-.709Zm126.238,29.475h0l-5.612.379.108.76c.1.733.206,1.466.309,2.2l2.968,10.3,2.029-.047.2-13.6ZM259.869,222.261l3.1,40.559a3,3,0,0,1,.266.531l11.276-1.087-2.682-39.581Zm17.943.633,2.628,38.8,7.265-.7-.4-16.864c0-.038,0-.08,0-.128l-.491-20.793ZM140.074,234.637h0l-11.939,7.324c2.44,4.43,4.732,8.626,6.811,12.469l42.638-35.068-20.62-.726a2.941,2.941,0,0,1,1.506,1.224,2.984,2.984,0,0,1-.981,4.1l-12.336,7.567,2.1,3.143a2.976,2.976,0,1,1-4.946,3.312l-2.235-3.34Zm225.6-9.951-.333,21.8a5.693,5.693,0,0,0,2.085.62.654.654,0,0,0,.306-.057c.007,0,.679-.538.54-3.447-.489-10.3-.333-13.516-.313-13.85a2.642,2.642,0,0,1,2.2-2.441l7.636-1.3c-.059-.323-.124-.684-.193-1.066-3.853-.1-7.865-.191-11.925-.263Zm-15.12-.19h0c.925,6.326,1.96,13.541,3.075,21.443l6.434-.436.319-20.9c-3.22-.045-6.526-.082-9.828-.107Zm-57.781-1.075.426,18.035,24.387,4.016-1.072-21.214-10.724-.379.143,6.064a2.311,2.311,0,0,1-2.259,2.37h-.058a2.312,2.312,0,0,1-2.311-2.26l-.15-6.338-8.383-.3Zm-161.99-28.267h0c-7.2,4.366-13.969,8.135-21.95,12.222,6.179,10.965,11.7,20.846,16.421,29.366l29.122-17.864a2.954,2.954,0,0,1,.718-.307l-11.457-.4a3.294,3.294,0,0,1-2.873-1.892l-9.981-21.122Zm-96.408-8.023-10.993,8.5.233.207.622.551.006.006c6.016,5.328,9.33,8.264,9.447,13.266l.064,2.749a7.048,7.048,0,0,1,3.238,1.569l.631.546A143.552,143.552,0,0,1,51.95,228.449c2.688-1.765,5.259-3.468,7.746-5.115l.282-.187Zm389.092,14.554a51.12,51.12,0,0,1-.065,18.958c12.026.986,22.292,2.239,30.512,3.721.588-3.119,1.29-8.886,1.284-18.644-5.137-.587-11.646-1.406-21.1-2.655l-.52-.069-.033,0c-3.62-.477-7.039-.928-10.073-1.307Zm-20.937,12.075a1.651,1.651,0,0,1,1.14.456,1.669,1.669,0,0,1,.512,1.158l.095,4c5.02.267,9.855.571,14.37.9l.111-.09a47.5,47.5,0,0,0-.11-19.07c-2.233-.247-3.733-.373-4.585-.387a51.707,51.707,0,0,1-9.886-1.524l-.047-.01a59.9,59.9,0,0,0-12.835-1.83,29.024,29.024,0,0,0-4.323.312c-1.886.281-4.672.73-8.28,1.335,1.105,7.165,2.162,13.707,3.142,19.443,3.172.1,6.265.2,9.194.315l-.074-3.079a1.656,1.656,0,0,1,1.615-1.692l9.92-.235Zm-1.616,3.348-6.613.157.039,1.636c2.117.088,4.284.187,6.625.3l-.05-2.094Zm-27.439-17.215c-8.662,1.479-18.9,3.285-25.962,4.54.633,3.981,1.327,8.5,2.062,13.441,9.409.069,18.449.213,26.867.429C375.518,212.855,374.521,206.661,373.476,199.892ZM313.85,126.5h0a2.653,2.653,0,0,1,2.612,2.149l7.6,40.278a2.855,2.855,0,0,1-.423,2.118,2.746,2.746,0,0,1-1.7,1.176l-.024,0-.013,0-8.055,1.216,8.116,41.354c.014.068.027.142.04.234v.007c.012.093.02.185.023.283l.126,2.511.589.02,1.624-.006,1.332,0h.042c2.733-.009,6.134-.02,9.921-.02l3.206,0c-1.516-10.106-2.727-17.65-3.7-23.061-.929-5.156-1.959-11.009-3.05-17.206l0-.01-.2-1.14,0-.011c-2.708-15.4-6.079-34.557-9.421-51.739l-4.335.652c-.1.013-.176.02-.25.024H317.9a114.244,114.244,0,0,0-13.159,1.709l8.061,41.08,5.565-.862-7.1-37.61a2.648,2.648,0,0,1,.413-1.989,2.618,2.618,0,0,1,2.172-1.159Zm-5.9,47.83-8.984,1.357,3.925,39.947a2.944,2.944,0,0,1-.252,1.508l13.539.477-.094-1.84Zm-14.878,2.247h0l-5.8.876,5.316,39.085c.014.1.023.175.027.251l4.532.16a2.908,2.908,0,0,1-.178-.733l-3.894-39.64Zm-17.416-40.329a83.439,83.439,0,0,1-15.8,1.5L268,214.861a3,3,0,0,1-.077,1.063l18.659.657Zm-15.723,58.911-14.644,1.644-.058.008-.029,0-10.115,1.134,3.346,16.933,23.693.834c-.005-.031-.013-.062-.02-.091a1.071,1.071,0,0,1-.027-.14Zm-30.785,3.456h0l-13.9,1.56,4.2,14.036,10.985.389c.092,0,.189,0,.285.009l1.6.056-3.172-16.05Zm-39.269-3.47a2.978,2.978,0,0,1,1.379,5.619l-10.716,5.587,3.2,6.6,29.429,1.037-4.631-15.47c-.007-.021-.013-.042-.019-.063l-.01-.034-6.764-22.594L188.372,154.2c-8.509,6.725-16.64,12.926-24.165,18.43l13.74,28.36,10.562-5.507A2.985,2.985,0,0,1,189.88,195.149Zm-19.627,3.62-17.521,13.1,24.281.855ZM82.566,182.515h0L67.781,190.5l11.446,20.3c5.1-2.943,10.163-5.507,14.917-7.882-3.651-6.453-7.546-13.316-11.578-20.4Zm76.745-6.336c-8.1,5.807-15.583,10.867-22.868,15.469l8.717,18.444,22.45-16.782Zm293.753-5.093-35.353,6.763c1.132,4.425,2.87,11.321,4.732,19.039,3.348.408,7.36.936,12.257,1.584l.429.057c5.9.778,13.24,1.746,20.018,2.525C454.955,192.308,454.255,182.225,453.064,171.086ZM371.49,186.692l-26.127,5c.044.243.088.488.132.731l.083.467c.361,2.005.752,4.285,1.2,6.969,10.328-1.833,19.077-3.363,26-4.547-.432-2.846-.864-5.746-1.285-8.617ZM100.774,134.734h0l-30.2,5.455c12.338,21.5,23.457,41,33.049,57.959a352.2,352.2,0,0,0,42.8-25.836c-1-4.394-4.537-16.363-15.673-32.558-2.088-3.036-4.107-6.182-6-9.352l-17.877,3.23,17.587,35.5a2.977,2.977,0,1,1-5.334,2.644l-18.352-37.037Zm290.5,58h0a64.391,64.391,0,0,1,13.843,1.932h.005l.046.01a48.668,48.668,0,0,0,8.972,1.42c.747.011,1.862.09,3.409.242-1.786-7.36-3.374-13.642-4.393-17.615L376.691,185.7c.433,2.944.871,5.882,1.3,8.732,3.6-.6,6.393-1.052,8.3-1.336A33.909,33.909,0,0,1,391.271,192.731Zm-161.8-29.478h0L207.212,173.4a2.766,2.766,0,0,1,.128.346l6.177,20.634,27.105-3.043c-2.49-5.94-7.249-17.49-11.15-28.086ZM26.708,176.347h0l-16.378,6.936c2.806,2.864,5.606,5.58,8.558,8.3l12.033-9.309-4.213-5.927Zm210.571-39.718c-5.039,0-7.566,2.245-8.419,3.21.182.981.334,1.916.464,2.858,1.229,8.906,13.679,38.953,17.466,47.95l12.518-1.406-5.443-51.566c-4.24-.146-8.057-.45-11.124-.694l-.045,0c-1.765-.141-3.289-.262-4.5-.325C237.886,136.637,237.579,136.629,237.279,136.629Zm115.752,11.933a2.317,2.317,0,0,1,.69,4.528l-14.388,4.495q1.519,8.528,2.914,16.488l.089.5c.826,4.7,1.438,8.174,1.986,11.269l26.312-5.036c-.539-3.735-1.1-7.729-1.728-12.21-1.442-10.385-2.985-21.29-4.49-30.681l-27.741,4.926c.666,3.647,1.283,7.061,1.835,10.145l13.831-4.322A2.324,2.324,0,0,1,353.031,148.562ZM35.8,101.046h0l11.879,40.986a2.989,2.989,0,0,1-2.005,3.681l-2.688.806,21.872,38.789,14.762-7.969c-19.21-33.706-37.043-64.583-43.818-76.294ZM450.345,139.1c-12.62.948-56.942,8.075-78.615,11.712.692,4.747,1.46,10.167,2.417,17.056.55,3.96,1.1,7.866,1.69,11.943l36.855-7.053a2.318,2.318,0,0,1,1.127-.688,2.25,2.25,0,0,1,.575-.075,2.328,2.328,0,0,1,1.022.241l37.1-7.1C451.941,156.474,451.212,147.714,450.345,139.1Zm-161.68-7.383h0c-.683.3-1.288.579-1.847.855a39.829,39.829,0,0,1-5.358,2.165l5.093,37.451,6-.929-3.884-39.542Zm10.254-3.406c-1.554.39-3.062.813-4.482,1.259l4.006,40.775,8.468-1.312-7.992-40.722Zm-79.448,1.471a127.891,127.891,0,0,0-10.492,7.729c-5.389,4.459-10.743,8.818-15.914,12.956l11.017,17.814,23.373-10.656c-2.291-6.588-3.646-11.339-4.029-14.119a45.055,45.055,0,0,0-3.955-13.723ZM207.154,97.493a84.129,84.129,0,0,1-7.337,4.276c-.055.027-.113.053-.178.079l-64.029,26.02c1.228,1.964,2.527,3.944,3.861,5.885,9.549,13.887,14.058,25.081,16.16,32.026,13.963-10.115,29.207-22.028,46.6-36.422a155.146,155.146,0,0,1,16.666-11.79Zm241.375,25.418c-11.03.149-28.661,3.3-29.407,3.431l-30.8,7.168c-.024.005-.042.05-.059.093s-.034.087-.058.091l-18.582,3.3c.4,2.488.8,5.082,1.229,7.93,14.511-2.435,63.087-10.47,78.874-11.677C449.356,129.83,448.952,126.353,448.529,122.911Zm-87.574-4.02h0l-28,4.2c.86,4.418,1.749,9.1,2.718,14.326l27.85-4.886c-.864-5.082-1.7-9.544-2.572-13.64ZM103.6,82.147h0L42.239,89.83c.592,1.856,1.068,2.983,1.2,3.284,1.06,1.829,10.742,18.536,23.988,41.593l34.4-6.214a1.908,1.908,0,0,1,.189-.036l19.593-3.54c-7.661-13.977-10.743-24.4-11.283-26.349-.639-1.572-1.338-3.257-2.079-5.042l-.08-.192c-1.23-2.958-2.914-7.009-4.566-11.188ZM290.446,94.393c-27.716,11.352-49.9,22.168-65.939,32.148a43.371,43.371,0,0,1,2.986,7.561,17.2,17.2,0,0,1,9.78-2.767c.389,0,.789.01,1.188.031,1.241.063,2.727.181,4.448.317h.008l.243.019c3.147.252,7.456.6,12.172.718a2.91,2.91,0,0,1,.94-.277,2.955,2.955,0,0,1,1.679.319l.7,0c11.087,0,19.53-1.515,25.812-4.632,12.958-6.429,31.007-7.655,33.023-7.774l3.975-.6c-3.051-15.318-5.61-26.5-7.825-34.186-6.451,2.44-12.809,4.921-18.9,7.374l3.1,6.5c1.617-.765,2.97-1.476,4.021-2.113a2.316,2.316,0,1,1,2.4,3.963c-5.614,3.4-16.51,7.331-17.734,7.768a2.259,2.259,0,0,1-.784.139,2.33,2.33,0,0,1-1.119-.286,2.317,2.317,0,0,1,.219-4.165l8.661-3.64-3.057-6.417Zm155.583,10.264c-16.774,1.715-50.881,9-52.325,9.314l-.024.005c-.055.012-.108.022-.165.029L366.2,118.1c.857,4.073,1.688,8.493,2.54,13.514l18.466-3.241,30.786-7.186.045-.013a.6.6,0,0,1,.081-.022c.73-.133,18.008-3.259,29.739-3.519C447.29,113.322,446.676,108.955,446.029,104.657ZM186.369,90.538,158.954,99.9l-32.607,10.906c1.837,3.966,3.911,7.967,6.165,11.893l56.7-23.04-2.843-9.12Zm165.469-1.376h0l-23.662,10.8c1.171,5.252,2.436,11.285,3.759,17.931l27.862-4.179a146.6,146.6,0,0,0-7.96-24.548ZM242.807,72.993h0c-12.891,9.193-23.2,16.346-30.649,21.261L223.99,114.48c9.644-5.685,21.162-11.637,34.233-17.691l-15.417-23.8Zm161.117-19.98c-26.411,9.493-44.429,15.952-53.554,19.2,1.864,4.413,3.639,8.567,5.157,12.114l1.093,2.559a152.242,152.242,0,0,1,8.43,26.041l27.6-4.139c1.418-.307,34.936-7.528,52.573-9.364-1.97-12.425-4.227-24.387-6.709-35.551l-3.187,1.373-4.98,2.18,2.99,6.708a2.094,2.094,0,0,1,.107.29l1.065,3.613a2.321,2.321,0,0,1-1.567,2.877,2.624,2.624,0,0,1-.273.063,2.311,2.311,0,0,1-2.6-1.632l-1.022-3.466-3.876-8.7a2.316,2.316,0,0,1,1.185-3.064l7.127-3.12,3.986-1.72c-1.953-8.4-3.535-14.117-4.3-16.777l-2.731.983-17.548,6.31-4.493,1.616,5.373,8.433a2.315,2.315,0,0,1-.708,3.2,2.274,2.274,0,0,1-.857.332,2.322,2.322,0,0,1-2.339-1.039ZM163.88,78.712,119.944,94.127l.081.2c.076.187.154.378.227.561a5.184,5.184,0,0,1,.222.667,91.166,91.166,0,0,0,3.989,11L157.471,95.51l9.853-3.364A28.765,28.765,0,0,1,165.16,85.2C164.7,82.874,164.286,80.752,163.88,78.712Zm34.007-12.155-11.066,4.017,6.864,27.266,3.62-1.472a89.258,89.258,0,0,0,7.734-4.572ZM345.335,73.9c-4.676,1.579-12.247,4.192-21.758,7.673,1.091,3.728,2.284,8.362,3.547,13.773L350.019,84.9C348.2,80.66,346.717,77.165,345.335,73.9Zm-91.7-8.679h0c-2.837,2.044-5.015,3.609-7.062,5.073l15.9,24.544c14.352-6.509,30.394-13.113,47.679-19.628-1.019-2.552-2.267-5.559-3.712-9.042l-.009-.023-.016-.039-.011-.026c-3.442-8.292-7.726-18.612-12.171-30.533-1.944,1.44-4.233,3.13-6.619,4.888l6.365,10.017a2.378,2.378,0,0,1,.462.547l2.709,4.445a2.316,2.316,0,0,1-3.931,2.448l-1.577-2.482-8.871,5.378L267.582,80.416a2.293,2.293,0,0,1-1.826.9h-.079a2.317,2.317,0,0,1-1.842-1.016l-10.2-15.072Zm-71.194,6.938h0L179.4,73.269l-11.1,3.893.014.067c.494,2.491.96,4.844,1.4,7.082a21.99,21.99,0,0,0,2.05,6.323l14.128-4.824-3.437-13.648ZM160.16,60.273,111.04,72c2.356,6.345,4.874,12.4,6.9,17.272l.071.17c.056.134.11.266.165.4l44.792-15.713C162.107,69.848,161.164,65.187,160.16,60.273Zm60.438.257a2.316,2.316,0,0,1,.053,4.631l-16.861.4,6.468,22.82c24.73-16.473,72.512-51.75,81.84-58.654-2.011-5.573-3.917-11.145-5.666-16.558l1.925,10.109a2.319,2.319,0,0,1-1.841,2.709,2.373,2.373,0,0,1-.449.043,2.31,2.31,0,0,1-2.259-1.884L281.54,12.227l-33.175.149,2.765,16.073c7.112.064,12.249.234,13.206.267h.037a2.316,2.316,0,0,1-.078,4.631l-32.2.1h-.006a2.3,2.3,0,0,1-.933-.2c-16.952.491-29.184,1.888-35.374,4.042l6.706,23.662,18.055-.427ZM49.5,15.748a18.889,18.889,0,0,0-8.678,2.643c1.477,6.933.72,14.03-.637,25.035l-.06.491c-.182,1.477-.37,3-.567,4.653C37.556,65.461,39.235,77.876,41,85.317l60.877-7.624c-2.749-7.242-4.888-13.7-6.54-19.752a119.943,119.943,0,0,1-3.921-20.8L65.32,35.157l-4.348,19.35a2.3,2.3,0,0,1-2.256,1.808,2.342,2.342,0,0,1-.461-.046,2.319,2.319,0,0,1-1.823-2.677l6.72-37.714c-7.438-.044-11.928-.086-13.343-.125C49.709,15.75,49.606,15.748,49.5,15.748ZM283.883,43.191h0c-9.229,6.786-18.14,13.286-26.487,19.321l8.482,12.54,13.5-17.435a2.312,2.312,0,0,1,.629-.563l9.155-5.549-5.281-8.314ZM173.429,55.381l-8.839,3.441c1.033,5.059,1.971,9.687,2.787,13.756l10.463-3.671,2.934-1.065ZM333.293,44.248h0a104.792,104.792,0,0,1-20,10.794c.906,2.209,1.769,4.287,2.6,6.3l.3.713.018.043.011.027c1.5,3.614,2.795,6.734,3.86,9.411,9.148-3.335,16.549-5.882,21.146-7.431-3.154-7.612-5.751-14.107-7.938-19.854ZM154.768,34.13l-52.966.026c.569,9.436,3.073,20.379,7.656,33.455l49.774-11.878c-2.023-9.873-3.791-18.369-4.457-21.568Zm35.513,5.592h0l-5.24,2.6.161,6.835a2.322,2.322,0,0,1-1.475,2.212L177.8,53.68l7.4,12.554,11.417-4.144-6.339-22.368ZM356.212,26.174a73.025,73.025,0,0,0-6.258,5.033c-3.043,2.605-7.21,6.173-12.195,9.866,2.314,6.128,5.1,13.114,8.515,21.357,8.537-3.035,25.078-8.962,49.163-17.617L372.065,27.786a43.784,43.784,0,0,1-4.31,1.835,18.282,18.282,0,0,1-5.943,1.255,5.8,5.8,0,0,1-3.938-1.267A4.894,4.894,0,0,1,356.212,26.174ZM162.131,24.8l-3.067,7.244.073.352c.593,2.845,2.4,11.5,4.511,21.817l7.4-2.88-2.424-4.112a2.281,2.281,0,0,1-.193-.418l-4.4-12.7a2.321,2.321,0,0,1,.435-2.269l3.575-4.153ZM306.877,7.069h0L296.083,8.578c5.544,17.339,11.478,32.375,15.458,42.177a101.384,101.384,0,0,0,20.077-10.974c-.858-2.329-1.635-4.51-2.31-6.481L316.1,42.345a2.316,2.316,0,1,1-2.616-3.822l14.314-9.8a93.875,93.875,0,0,1-2.542-9.37c-.566-2.8-1.207-5.447-1.827-8.007l0-.014c-.48-1.98-1.023-4.224-1.454-6.341L307.913,7.147a2.382,2.382,0,0,1-.355.027,2.274,2.274,0,0,1-.682-.1ZM172.341,29.788l-3.5,4.066,3.887,11.219,2.69,4.562,5.117-1.991-.158-6.684a2.326,2.326,0,0,1,1.283-2.129l4.565-2.266ZM372.28,22.76a2.293,2.293,0,0,1,1.362.444l9.209,5.371L400.7,42.92l24.97-8.979L409.091.489a2.271,2.271,0,0,1-.849.653c-4.6,2.015-12.043,5.523-22.122,10.426-9.888,4.807-19.949,9.812-25.066,12.368-.433,1.644-.166,2.156-.163,2.161a1.36,1.36,0,0,0,.836.187c1.7,0,5.582-1.136,9.443-3.241A2.327,2.327,0,0,1,372.28,22.76Zm-26.444,5.874-3.189,1.005a2.408,2.408,0,0,1-.282.069l-8.177,1.49c.577,1.689,1.213,3.49,1.892,5.35C339.755,33.777,342.941,31.106,345.837,28.634ZM67.853,15.9h0l-2.6,14.6,25.88,1.97c-.062-2.044-.049-3.9.037-5.674.135-2.764.281-6.4.433-10.8-10.6-.038-17.927-.069-23.748-.1Zm34.337.133c-.157,4.588-.308,8.384-.451,11.284-.033.679-.052,1.4-.06,2.2l53.436-.027,2.849-6.726L144.4,16.151C137.77,16.136,120.385,16.095,102.19,16.036ZM4.411,161.565a2.965,2.965,0,0,1-2.7-1.739l-.024-.052C1.177,158.668.6,157.415,0,156.109V140.238l6.633-3.057L0,124.66V111.941l13.367,25.231a2.978,2.978,0,0,1-1.385,4.1L1.843,145.947c1.273,2.716,2.623,5.624,4.012,8.644l24.89-11.969a2.943,2.943,0,0,1,1.287-.295,2.979,2.979,0,0,1,1.293,5.662L5.7,161.271A3.016,3.016,0,0,1,4.411,161.565Z" transform="translate(-25.022 -40.377)" fill="#d3d9e3"/>
          </g>
        </g>
        <g id="Group_33" data-name="Group 33">
          <path id="Clip_32-2" data-name="Clip 32" d="M.578,23.782,0,282.433,81.984,258.65l81.879,24.15,81.988-23.781,81.879,24.147,81.959-11.8.58-258.651-81.959,11.8L246.43.367,164.444,24.15,82.565,0" transform="translate(0.467 0.159)" fill="none"/>
          <g id="Group_33-2" data-name="Group 33" clip-path="url(#clip-path)">
            <path id="Fill_31" data-name="Fill 31" d="M0,0,6.435,75.884l95.137-5.768v-59.1S88.336,8.691,63.566,9.42C40.907,10.085,0,0,0,0" transform="translate(334.682 248.837)" fill="#697882"/>
          </g>
        </g>
        <g id="Group_48" data-name="Group 48">
          <path id="Clip_47-2" data-name="Clip 47" d="M.578,23.782,0,282.433,81.984,258.65l81.879,24.15,81.988-23.781,81.879,24.147,81.959-11.8.58-258.651-81.959,11.8L246.43.367,164.444,24.15,82.565,0" transform="translate(0.467 0.159)" fill="none"/>
          <g id="Group_48-2" data-name="Group 48" clip-path="url(#clip-path)">
            <path id="Stroke_46" data-name="Stroke 46" d="M0,236.478a290.084,290.084,0,0,0,48.622-25.954c26.336-17.3,73.036-43,86.879-51.334,34.018-20.471,61.37-48.741,88.657-65.435,34.627-21.182,95.248-43.3,146.526-61.647C420.366,14.335,461.277,0,461.277,0" transform="translate(-25.021 -13.269)" fill="none"/>
          </g>
        </g>
      </g>
      <g id="Group_59" data-name="Group 59">
        <path id="Fill_53" data-name="Fill 53" d="M.629,26.792,93.044,0l-.627,280.258L0,307.051Z" transform="translate(0.964 0.945)" opacity="0.04"/>
        <path id="Fill_57" data-name="Fill 57" d="M2.107,13.187,0,293.01l93.125-13.4L93.752,0Z" transform="translate(338.486 12.49)" opacity="0.04"/>
      </g>
      <path id="Fill_55" data-name="Fill 55" d="M.628,23.778,0,304.037l82.019-23.78L82.648,0Z" transform="translate(175.293 1.313)" opacity="0.04"/>
    </g>
    <g transform="matrix(1, 0, 0, 1, -12, 0)" filter="url(#Fill_49)">
      <path id="Fill_49-2" data-name="Fill 49" d="M27.639,82h0c-.069-.1-6.929-9.977-13.683-21.458A192.244,192.244,0,0,1,4.474,42.622C1.591,36.227.088,31.249.008,27.825a27.2,27.2,0,0,1,15.9-25.431A26.689,26.689,0,0,1,26.364.008C26.58,0,26.8,0,27.014,0A26.754,26.754,0,0,1,45.858,7.724,27.115,27.115,0,0,1,54,26.54c.08,3.424-1.255,8.469-3.97,15A188.891,188.891,0,0,1,40.95,59.9C34.428,71.686,27.707,81.9,27.64,82ZM27,9.914A15.757,15.757,0,1,0,42.653,25.67,15.723,15.723,0,0,0,27,9.914Z" transform="translate(203 88.05)" fill="#2bc866"/>
    </g>
  </g>
</svg>
