<svg xmlns="http://www.w3.org/2000/svg" xmlns:xlink="http://www.w3.org/1999/xlink" width="29.961" height="37.594" viewBox="0 0 29.961 37.594">
  <defs>
    <clipPath id="clip-path">
      <path id="Clip_12" data-name="Clip 12" d="M0,0H29.961V37.594H0Z" transform="translate(0 0.075)" fill="none"/>
    </clipPath>
  </defs>
  <g id="Group_16" data-name="Group 16" transform="translate(0 -0.075)">
    <path id="Fill_1" data-name="Fill 1" d="M16.953,0H.861A.839.839,0,0,0,0,.812a.839.839,0,0,0,.861.812H16.953a.839.839,0,0,0,.861-.812A.839.839,0,0,0,16.953,0" transform="translate(7.765 9.653)" fill="#2bc866"/>
    <path id="Fill_3" data-name="Fill 3" d="M17.814.812A.775.775,0,0,0,17.063,0H.751A.775.775,0,0,0,0,.812a.775.775,0,0,0,.751.812H17.063a.775.775,0,0,0,.751-.812" transform="translate(7.765 13.97)" fill="#2bc866"/>
    <path id="Fill_5" data-name="Fill 5" d="M9.964,0H.861A.839.839,0,0,0,0,.812a.839.839,0,0,0,.861.812h9.1a.839.839,0,0,0,.861-.812A.839.839,0,0,0,9.964,0" transform="translate(14.754 18.287)" fill="#2bc866"/>
    <path id="Fill_7" data-name="Fill 7" d="M6.474,0H.751A.775.775,0,0,0,0,.812a.775.775,0,0,0,.751.812H6.474A.775.775,0,0,0,7.224.812.775.775,0,0,0,6.474,0" transform="translate(18.355 22.604)" fill="#2bc866"/>
    <path id="Fill_9" data-name="Fill 9" d="M7.886,0H.751A.775.775,0,0,0,0,.812a.775.775,0,0,0,.751.812H7.886A.775.775,0,0,0,8.636.812.775.775,0,0,0,7.886,0" transform="translate(16.943 26.92)" fill="#2bc866"/>
    <g id="Group_13" data-name="Group 13" transform="translate(0 0)">
      <path id="Clip_12-2" data-name="Clip 12" d="M0,0H29.961V37.594H0Z" transform="translate(0 0.075)" fill="none"/>
      <g id="Group_13-2" data-name="Group 13" clip-path="url(#clip-path)">
        <path id="Fill_11" data-name="Fill 11" d="M28.866,37.594H4.478A1.1,1.1,0,0,1,3.384,36.5V31.673a7.924,7.924,0,0,1-2.81-3.539,7.871,7.871,0,0,1,2.81-9.413V1.094A1.1,1.1,0,0,1,4.478,0H24.423a.74.74,0,0,1,.525.217l4.8,4.794a.733.733,0,0,1,.217.524V31.106a.756.756,0,0,1-.67.753c-.023,0-.046,0-.069,0a.741.741,0,0,1-.713-.531.815.815,0,0,1-.031-.229V6.777h-4.2a1.1,1.1,0,0,1-1.094-1.094v-4.2H4.866V17.908a7.87,7.87,0,0,1,6.149.035.751.751,0,0,1,.238,1.214.759.759,0,0,1-.538.228.722.722,0,0,1-.289-.06A6.493,6.493,0,0,0,9.473,19a6.4,6.4,0,1,0,4.63,4.682.752.752,0,0,1,.725-.933.757.757,0,0,1,.736.578,7.892,7.892,0,0,1-9.92,9.433,7.7,7.7,0,0,1-.779-.276v3.626H28.478V34.75a.771.771,0,0,1,.031-.228.741.741,0,0,1,.71-.528c.024,0,.048,0,.071,0a.755.755,0,0,1,.67.752V36.5A1.1,1.1,0,0,1,28.866,37.594Zm-4.2-35.562V5.295h3.263L25.868,3.234,24.819,2.185Z" transform="translate(0 0.075)" fill="#2bc866"/>
      </g>
    </g>
    <path id="Fill_14" data-name="Fill 14" d="M9.111.426,3.449,7.174l-1.964-3.4A.744.744,0,0,0,.446,3.594a.744.744,0,0,0-.367.988L2.643,9.024c.009.016.02.032.031.047a.676.676,0,0,0,.125.141.928.928,0,0,0,1.282-.265L10.355,1.47A.928.928,0,0,0,10.394.161.928.928,0,0,0,9.111.426" transform="translate(3.548 19.774)" fill="#2bc866"/>
  </g>
</svg>
