<svg xmlns="http://www.w3.org/2000/svg" width="37.968" height="37.915" viewBox="0 0 37.968 37.915">
  <g id="Group_6" data-name="Group 6" transform="translate(0 -0.008)">
    <g id="Group_3" data-name="Group 3">
      <path id="Fill_1" data-name="Fill 1" d="M8.632,37.915A5.177,5.177,0,0,1,6.36,28.086V4.543H2.273A2.275,2.275,0,0,1,0,2.2,2.314,2.314,0,0,1,2.32,0H9.754A1.151,1.151,0,0,1,10.9,1.149V28.086a5.174,5.174,0,0,1,1.373.976V12.692a1.148,1.148,0,0,1,.067-.383,1.149,1.149,0,0,1-.067-.383V4.161a1.151,1.151,0,0,1,1.149-1.149h13.09a1.074,1.074,0,0,1,1.073,1.072v7.459h4a1.151,1.151,0,0,1,1.149,1.149V30.467H35.7a2.272,2.272,0,0,1,0,4.544H13.284A5.146,5.146,0,0,1,8.632,37.915Zm0-8.821a3.581,3.581,0,0,0-.739.076A3.642,3.642,0,1,0,12.2,33.478a3.581,3.581,0,0,0,.076-.739,3.625,3.625,0,0,0-.8-2.273,3.7,3.7,0,0,0-.575-.575,3.635,3.635,0,0,0-1.532-.721A3.6,3.6,0,0,0,8.632,29.094ZM13.755,32a5.18,5.18,0,0,1,0,1.48H35.7a.74.74,0,1,0,0-1.48H13.755Zm6.2-5.578h5.1A1.151,1.151,0,0,1,26.2,27.57v2.9h5V13.074h-5v5.912a1.151,1.151,0,0,1-1.149,1.149h-5.1a1.151,1.151,0,0,1-1.149-1.149V13.074h-5V30.467h5v-2.9A1.151,1.151,0,0,1,19.956,26.42Zm.383,1.532v2.515h4.33V27.952Zm-11.707-.39a5.174,5.174,0,0,1,.74.052V1.533h-7.1a.744.744,0,0,0-.541.234.732.732,0,0,0-.2.553.754.754,0,0,0,.763.69H7.126a.768.768,0,0,1,.767.767V27.615A5.155,5.155,0,0,1,8.632,27.563ZM20.339,13.09V18.6h4.33V13.09ZM13.808,4.543v7H26.055v-7H22.962V7.278a1.151,1.151,0,0,1-1.149,1.149H18.05A1.151,1.151,0,0,1,16.9,7.278V4.543Zm4.626,0V6.895h3V4.543Z" transform="translate(0 0.008)" fill="#c8cdda"/>
    </g>
    <path id="Fill_4" data-name="Fill 4" d="M2.324,4.648A2.324,2.324,0,1,1,4.648,2.324,2.326,2.326,0,0,1,2.324,4.648Zm0-3.1a.775.775,0,1,0,.775.775A.776.776,0,0,0,2.324,1.549Z" transform="translate(6.288 30.619)" fill="#c8cdda"/>
  </g>
</svg>
